<svg width="75" height="75" viewBox="0 0 75 75" fill="none" xmlns="http://www.w3.org/2000/svg">
<path d="M75 37.5C75 16.7903 58.2097 0 37.5 0C16.7903 0 0 16.7903 0 37.5C0 58.2097 16.7903 75 37.5 75C58.2097 75 75 58.2097 75 37.5ZM29.5673 50.8666V24.1334C29.5677 23.5856 29.7241 23.0492 30.0182 22.587C30.3123 22.1248 30.732 21.756 31.228 21.5235C31.7241 21.2911 32.2761 21.2047 32.8195 21.2745C33.3628 21.3443 33.8751 21.5674 34.2963 21.9177L50.3582 35.2825C50.6836 35.5532 50.9454 35.8922 51.1251 36.2754C51.3048 36.6586 51.3979 37.0767 51.3979 37.5C51.3979 37.9233 51.3048 38.3414 51.1251 38.7246C50.9454 39.1078 50.6836 39.4468 50.3582 39.7175L34.2963 53.0823C33.8751 53.4326 33.3628 53.6557 32.8195 53.7255C32.2761 53.7953 31.7241 53.7089 31.228 53.4765C30.732 53.244 30.3123 52.8752 30.0182 52.413C29.7241 51.9508 29.5677 51.4144 29.5673 50.8666Z" fill="#FFFDFD"/>
</svg>
