<svg width="47" height="47" viewBox="0 0 47 47" fill="none" xmlns="http://www.w3.org/2000/svg">
<path d="M16.1562 41.125C17.7786 41.125 19.0938 39.8098 19.0938 38.1875C19.0938 36.5652 17.7786 35.25 16.1562 35.25C14.5339 35.25 13.2188 36.5652 13.2188 38.1875C13.2188 39.8098 14.5339 41.125 16.1562 41.125Z" fill="#F7ECEC"/>
<path d="M36.7188 41.125C38.3411 41.125 39.6562 39.8098 39.6562 38.1875C39.6562 36.5652 38.3411 35.25 36.7188 35.25C35.0964 35.25 33.7812 36.5652 33.7812 38.1875C33.7812 39.8098 35.0964 41.125 36.7188 41.125Z" fill="#F7ECEC"/>
<path d="M41.9328 11.0872C41.7265 10.8348 41.4665 10.6315 41.1718 10.4921C40.8771 10.3527 40.5551 10.2807 40.2291 10.2812H12.2907L11.728 7.08855C11.668 6.74847 11.4901 6.44041 11.2255 6.21847C10.9609 5.99654 10.6266 5.87493 10.2812 5.875H4.40625C4.01671 5.875 3.64313 6.02974 3.36769 6.30519C3.09224 6.58063 2.9375 6.95421 2.9375 7.34375C2.9375 7.73329 3.09224 8.10687 3.36769 8.38231C3.64313 8.65776 4.01671 8.8125 4.40625 8.8125H9.04934L13.2408 32.5677C13.3008 32.9078 13.4787 33.2158 13.7433 33.4378C14.0078 33.6597 14.3422 33.7813 14.6875 33.7812H38.1875C38.577 33.7812 38.9506 33.6265 39.2261 33.3511C39.5015 33.0756 39.6562 32.702 39.6562 32.3125C39.6562 31.923 39.5015 31.5494 39.2261 31.2739C38.9506 30.9985 38.577 30.8438 38.1875 30.8438H15.9194L15.4017 27.9062H37.5853C38.0947 27.9056 38.5882 27.729 38.9823 27.4063C39.3764 27.0836 39.6469 26.6347 39.748 26.1355L42.3918 12.9167C42.4555 12.5968 42.4474 12.2668 42.368 11.9504C42.2886 11.634 42.14 11.3392 41.9328 11.0872Z" fill="#F7ECEC"/>
</svg>
