<svg width="77" height="61" viewBox="0 0 77 61" fill="none" xmlns="http://www.w3.org/2000/svg">
<path d="M76.4688 7.32327C73.6202 8.56097 70.6064 9.3764 67.5224 9.74378C70.7634 7.84594 73.2008 4.83088 74.3773 1.26409C71.3131 3.05588 67.9662 4.31309 64.4801 4.98186C63.0121 3.44338 61.2466 2.21948 59.291 1.38455C57.3353 0.549621 55.2302 0.121097 53.1037 0.125027C44.4943 0.125027 37.5271 6.99104 37.5271 15.4549C37.5209 16.6322 37.6559 17.806 37.9289 18.9512C31.7553 18.6618 25.7101 17.0869 20.1801 14.3273C14.65 11.5677 9.75684 7.68422 5.81365 2.92522C4.43028 5.25733 3.69869 7.91818 3.69531 10.6297C3.69531 15.9453 6.46861 20.644 10.6562 23.3967C8.17519 23.3378 5.74498 22.6812 3.57191 21.4824V21.6723C3.57191 29.1078 8.95082 35.2936 16.07 36.7016C14.7312 37.0585 13.3517 37.2393 11.9662 37.2395C10.9831 37.2412 10.0022 37.1458 9.03783 36.9547C11.017 43.0455 16.7771 47.4752 23.6004 47.6018C18.056 51.8747 11.2489 54.1842 4.24902 54.1672C3.00652 54.1654 1.76518 54.0914 0.53125 53.9457C7.65226 58.4928 15.9299 60.898 24.3788 60.875C53.0705 60.875 68.7453 37.5084 68.7453 17.2426C68.7453 16.5782 68.7279 15.9137 68.6962 15.2651C71.7386 13.1009 74.3707 10.4116 76.4688 7.32327Z" fill="white"/>
</svg>
