<svg width="99" height="99" viewBox="0 0 99 99" fill="none" xmlns="http://www.w3.org/2000/svg">
<path fill-rule="evenodd" clip-rule="evenodd" d="M84.5322 14.4305C79.9616 9.85768 74.5316 6.23406 68.5549 3.76823C62.5782 1.3024 56.1728 0.0430639 49.7075 0.0627267C22.5742 0.0627267 0.48625 22.0403 0.475215 49.0588C0.463212 57.6621 2.73101 66.1149 7.04775 73.5569L0.0625 98.9377L26.1606 92.1246C33.3847 96.0382 41.4715 98.0865 49.6876 98.0836H49.7075C76.8385 98.0836 98.9243 76.1038 98.9375 49.0875C98.9539 42.6442 97.6888 36.262 95.2158 30.3122C92.7427 24.3623 89.1111 18.9637 84.5322 14.4305ZM49.7075 89.8139H49.6898C42.3655 89.816 35.1744 87.8559 28.8643 84.1374L27.3701 83.2546L11.8834 87.2979L16.0171 72.2702L15.0438 70.7253C10.9484 64.2414 8.77861 56.7278 8.78689 49.0588C8.78689 26.6067 27.1516 8.33909 49.7229 8.33909C60.5506 8.31976 70.9426 12.602 78.6132 20.2441C86.2838 27.8861 90.6048 38.2621 90.6258 49.0897C90.617 71.5441 72.2611 89.8139 49.7075 89.8139ZM72.1508 59.3149C70.9214 58.7013 64.8676 55.7395 63.7464 55.3312C62.6252 54.9229 61.7976 54.7177 60.9788 55.9448C60.16 57.1719 57.8006 59.9174 57.0834 60.7451C56.3661 61.5727 55.6488 61.6632 54.4195 61.0496C53.1902 60.4361 49.2241 59.145 44.5254 54.9737C40.8683 51.7271 38.4008 47.7192 37.6836 46.4943C36.9663 45.2693 37.6063 44.605 38.2221 43.9959C38.776 43.4463 39.4514 42.5657 40.0672 41.8507C40.6829 41.1356 40.8882 40.6235 41.2965 39.8069C41.7048 38.9903 41.5017 38.2753 41.1949 37.6639C40.8882 37.0526 38.4273 31.0252 37.4033 28.5732C36.4035 26.1851 35.3904 26.5096 34.6356 26.4721C33.9184 26.4368 33.0907 26.4279 32.2763 26.4279C31.6538 26.4441 31.0412 26.5885 30.4769 26.852C29.9126 27.1156 29.4087 27.4926 28.9967 27.9596C27.8689 29.1867 24.6908 32.153 24.6908 38.1737C24.6908 44.1945 29.1048 50.0211 29.714 50.8377C30.3231 51.6543 38.3876 64.0203 50.7271 69.3238C53.0184 70.305 55.3596 71.1655 57.7411 71.9016C60.6874 72.833 63.369 72.7028 65.4877 72.3871C67.8515 72.0362 72.7709 69.4253 73.7928 66.565C74.8147 63.7047 74.8169 61.2549 74.5101 60.7451C74.2033 60.2352 73.3823 59.9262 72.1508 59.3149Z" fill="white"/>
</svg>
