<svg width="87" height="87" viewBox="0 0 87 87" fill="none" xmlns="http://www.w3.org/2000/svg">
<path d="M59.3588 11.7807C63.5614 11.7932 67.5883 13.4683 70.56 16.44C73.5317 19.4117 75.2068 23.4386 75.2193 27.6412V59.3588C75.2068 63.5614 73.5317 67.5883 70.56 70.56C67.5883 73.5317 63.5614 75.2068 59.3588 75.2193H27.6412C23.4386 75.2068 19.4117 73.5317 16.44 70.56C13.4683 67.5883 11.7932 63.5614 11.7807 59.3588V27.6412C11.7932 23.4386 13.4683 19.4117 16.44 16.44C19.4117 13.4683 23.4386 11.7932 27.6412 11.7807H59.3588ZM59.3588 5.4375H27.6412C15.4289 5.4375 5.4375 15.4289 5.4375 27.6412V59.3588C5.4375 71.5711 15.4289 81.5625 27.6412 81.5625H59.3588C71.5711 81.5625 81.5625 71.5711 81.5625 59.3588V27.6412C81.5625 15.4289 71.5711 5.4375 59.3588 5.4375Z" fill="#FFFBFB"/>
<path d="M64.1166 27.6411C63.1756 27.6411 62.2558 27.3621 61.4733 26.8393C60.6909 26.3165 60.0811 25.5734 59.721 24.704C59.3609 23.8347 59.2667 22.878 59.4502 21.9551C59.6338 21.0322 60.087 20.1844 60.7523 19.519C61.4177 18.8536 62.2655 18.4005 63.1884 18.2169C64.1113 18.0333 65.068 18.1275 65.9374 18.4877C66.8067 18.8478 67.5498 19.4576 68.0726 20.24C68.5954 21.0224 68.8744 21.9423 68.8744 22.8833C68.8758 23.5085 68.7536 24.1278 68.515 24.7056C68.2764 25.2835 67.926 25.8085 67.4839 26.2506C67.0418 26.6927 66.5168 27.0431 65.939 27.2817C65.3611 27.5203 64.7418 27.6425 64.1166 27.6411ZM43.5 30.8119C46.0095 30.8119 48.4626 31.556 50.5491 32.9502C52.6357 34.3444 54.2619 36.326 55.2223 38.6444C56.1826 40.9629 56.4338 43.514 55.9443 45.9752C55.4547 48.4365 54.2463 50.6973 52.4718 52.4717C50.6974 54.2462 48.4366 55.4546 45.9753 55.9442C43.5141 56.4338 40.9629 56.1825 38.6445 55.2222C36.3261 54.2618 34.3444 52.6356 32.9503 50.549C31.5561 48.4625 30.8119 46.0094 30.8119 43.4999C30.8155 40.1359 32.1535 36.9108 34.5322 34.5321C36.9109 32.1534 40.136 30.8155 43.5 30.8119ZM43.5 24.4687C39.736 24.4687 36.0565 25.5848 32.9268 27.676C29.7971 29.7672 27.3579 32.7395 25.9174 36.217C24.477 39.6945 24.1001 43.521 24.8344 47.2127C25.5688 50.9044 27.3813 54.2955 30.0429 56.957C32.7045 59.6186 36.0955 61.4312 39.7872 62.1655C43.4789 62.8998 47.3054 62.5229 50.783 61.0825C54.2605 59.6421 57.2327 57.2028 59.3239 54.0731C61.4151 50.9434 62.5313 47.2639 62.5313 43.4999C62.5313 38.4525 60.5262 33.6119 56.9571 30.0428C53.3881 26.4737 48.5474 24.4687 43.5 24.4687Z" fill="white"/>
</svg>
