<svg width="75" height="75" viewBox="0 0 75 75" fill="none" xmlns="http://www.w3.org/2000/svg">
<path d="M-9.53674e-07 37.5C-9.53674e-07 16.7903 16.7903 0 37.5 0C58.2097 0 75 16.7903 75 37.5C75 58.2097 58.2097 75 37.5 75C16.7903 75 -9.53674e-07 58.2097 -9.53674e-07 37.5ZM45.4327 50.8666V24.1334C45.4323 23.5856 45.2759 23.0492 44.9818 22.587C44.6877 22.1248 44.268 21.756 43.772 21.5235C43.2759 21.2911 42.7239 21.2047 42.1805 21.2745C41.6372 21.3443 41.1249 21.5674 40.7037 21.9177L24.6418 35.2825C24.3164 35.5532 24.0546 35.8922 23.8749 36.2754C23.6952 36.6586 23.6021 37.0767 23.6021 37.5C23.6021 37.9233 23.6952 38.3414 23.8749 38.7246C24.0546 39.1078 24.3164 39.4468 24.6418 39.7175L40.7037 53.0823C41.1249 53.4326 41.6372 53.6557 42.1805 53.7255C42.7239 53.7953 43.2759 53.7089 43.772 53.4765C44.268 53.244 44.6877 52.8752 44.9818 52.413C45.2759 51.9508 45.4323 51.4144 45.4327 50.8666Z" fill="#FFFDFD"/>
</svg>
