<svg width="67" height="53" viewBox="0 0 67 53" fill="none" xmlns="http://www.w3.org/2000/svg">
<path d="M58.1875 0H8.3125C6.10861 0.00238854 3.99566 0.890458 2.43728 2.46935C0.878894 4.04824 0.00235752 6.18899 0 8.42188V44.5156C0.00235752 46.7485 0.878894 48.8893 2.43728 50.4682C3.99566 52.047 6.10861 52.9351 8.3125 52.9375H58.1875C60.3914 52.9351 62.5043 52.047 64.0627 50.4682C65.6211 48.8893 66.4976 46.7485 66.5 44.5156V8.42188C66.4976 6.18899 65.6211 4.04824 64.0627 2.46935C62.5043 0.890458 60.3914 0.00238854 58.1875 0ZM56.0827 13.9307L34.7077 30.7744C34.2908 31.1027 33.7779 31.2809 33.25 31.2809C32.7221 31.2809 32.2092 31.1027 31.7923 30.7744L10.4173 13.9307C10.1662 13.7385 9.95527 13.4977 9.79678 13.2223C9.63829 12.9468 9.53542 12.6422 9.49414 12.3261C9.45285 12.01 9.47399 11.6888 9.55631 11.381C9.63863 11.0733 9.7805 10.7852 9.97366 10.5335C10.1668 10.2818 10.4074 10.0715 10.6815 9.91478C10.9556 9.7581 11.2577 9.65817 11.5702 9.6208C11.8828 9.58343 12.1995 9.60936 12.5021 9.69709C12.8046 9.78481 13.087 9.93258 13.3327 10.1318L33.25 25.8266L53.1673 10.1318C53.6654 9.75076 54.2915 9.58363 54.9102 9.66658C55.5289 9.74952 56.0905 10.0759 56.4736 10.5751C56.8566 11.0742 57.0304 11.7061 56.9572 12.3341C56.8841 12.962 56.5699 13.5356 56.0827 13.9307Z" fill="white"/>
</svg>
